<svg width="512" height="512" viewBox="0 0 512 512" fill="none" xmlns="http://www.w3.org/2000/svg">
    <rect width="512" height="512" rx="120" fill="#0F172A"/>
    
    <path d="M80 160H432" stroke="#334155" stroke-width="20" stroke-linecap="round"/>
    <path d="M80 256H432" stroke="#334155" stroke-width="20" stroke-linecap="round"/>
    <path d="M80 352H432" stroke="#334155" stroke-width="20" stroke-linecap="round"/>

    <path fill-rule="evenodd" clip-rule="evenodd" d="M120 180C108.954 180 100 188.954 100 200V340C100 351.046 108.954 360 120 360H140C140 376.569 153.431 390 170 390C186.569 390 200 376.569 200 360H340C340 376.569 353.431 390 370 390C386.569 390 400 376.569 400 360H410C421.046 360 430 351.046 430 340V260L400 220H340V200C340 188.954 331.046 180 320 180H120ZM170 370C164.477 370 160 365.523 160 360C160 354.477 164.477 350 170 350C175.523 350 180 354.477 180 360C180 365.523 175.523 370 170 370ZM370 370C364.477 370 360 365.523 360 360C360 354.477 364.477 350 370 350C375.523 350 380 354.477 380 360C380 365.523 375.523 370 370 370ZM340 240V260H405L390 240H340Z" fill="white"/>
    
    <rect x="140" y="145" width="120" height="30" rx="15" fill="#22C55E"/>
</svg>